<svg xmlns="http://www.w3.org/2000/svg" xmlns:xlink="http://www.w3.org/1999/xlink" width="1125" viewBox="0 0 843.75 843.749975" height="1125" preserveAspectRatio="xMidYMid meet"><defs><g></g><clipPath id="85330c92da"><path d="M 44.433594 44.433594 L 798.710938 44.433594 L 798.710938 798.710938 L 44.433594 798.710938 Z M 44.433594 44.433594 " clip-rule="nonzero"></path></clipPath></defs><path fill="#fa9e9e" d="M 165.980469 141.609375 L 165.980469 141.613281 C 156.683594 149.320312 148.121094 157.59375 140.289062 166.433594 C 144.050781 162.554688 147.949219 158.660156 151.980469 154.75 C 155.519531 151.296875 160.183594 146.914062 165.980469 141.609375 M 128.105469 148.9375 C 121.792969 154.589844 116.191406 159.957031 111.304688 165.046875 C 106.417969 170.132812 102.050781 175.050781 98.207031 179.789062 C 106.914062 169.949219 116.882812 159.664062 128.105469 148.9375 M 783.652344 332.441406 L 783.5 334.101562 L 783.457031 335.773438 L 783.546875 337.460938 L 783.785156 339.167969 L 784.179688 340.90625 L 784.757812 342.675781 L 785.523438 344.484375 L 786.5 346.335938 L 787.699219 348.234375 L 789.140625 350.1875 L 790.839844 352.199219 L 792.808594 354.277344 C 790.203125 347.785156 787.152344 340.503906 783.652344 332.441406 M 417.304688 28.183594 L 412.046875 28.222656 C 302.125 32.980469 207.554688 73.152344 128.328125 148.738281 C 211.53125 75.785156 304.910156 38.238281 408.464844 36.09375 C 462.410156 36.464844 508.359375 44.609375 546.304688 60.527344 C 603.058594 83.253906 648.421875 110.570312 682.398438 142.480469 C 707.117188 165.664062 725.53125 186.242188 737.640625 204.214844 C 707.21875 161.371094 661.21875 124.367188 599.640625 93.199219 C 532.683594 62.429688 467.316406 47.050781 403.546875 47.058594 C 317.304688 45.363281 238.160156 76.84375 166.121094 141.496094 C 240.503906 82.125 323.652344 55.792969 415.570312 62.5 C 522.410156 72.175781 612.070312 110.429688 684.550781 177.257812 C 724.042969 214.570312 757.078125 266.285156 783.65625 332.410156 C 788.78125 315.613281 790.238281 305.515625 788.027344 302.128906 C 798.582031 333.769531 804.847656 366.613281 806.824219 400.660156 C 813.964844 496.933594 783.847656 587.65625 716.476562 672.835938 C 827.023438 547.964844 849.402344 408.777344 783.621094 255.28125 C 747.808594 182.003906 700.78125 128.449219 642.535156 94.609375 C 569.695312 51.011719 494.617188 28.871094 417.304688 28.183594 M 716.347656 672.976562 L 713.566406 675.972656 C 705.183594 685.03125 696.195312 694.195312 686.601562 703.460938 L 693.097656 698.265625 L 694.515625 697.074219 C 694.917969 696.792969 696.558594 695.234375 699.433594 692.394531 C 701.839844 689.957031 704.46875 687.101562 707.320312 683.832031 L 711.722656 678.664062 L 716.347656 672.976562 M 140.148438 166.578125 L 133.304688 173.785156 C 55.539062 260.96875 20.878906 358.84375 29.328125 467.417969 C 16.820312 420.734375 17.476562 371.910156 31.292969 320.933594 C 44.628906 267.019531 66.890625 220.023438 98.078125 179.945312 C 46.445312 239.207031 18.105469 315.082031 13.066406 407.570312 C 12.917969 424.257812 15.703125 445.160156 21.421875 470.277344 C 41.570312 541.789062 53.355469 579.738281 56.777344 584.132812 C 78.996094 634.714844 105.152344 673.996094 135.246094 701.976562 C 173.6875 737.953125 216.027344 764.953125 262.257812 782.980469 C 308.914062 802.347656 353.117188 811.652344 394.871094 810.890625 C 454.597656 809.597656 510.734375 800.683594 563.289062 784.15625 C 601.449219 770.546875 642.523438 743.675781 686.519531 703.539062 C 641 739.820312 601.859375 763.027344 569.097656 773.167969 C 507.777344 790.023438 451.175781 798.042969 399.296875 797.234375 C 366.757812 799.496094 320.421875 787.683594 260.28125 761.796875 C 216.351562 742.582031 180.078125 718.855469 151.457031 690.625 C 128.578125 667.679688 111.195312 646.273438 99.304688 626.394531 C 134.730469 668.914062 186.125 709.492188 253.492188 748.136719 C 285.867188 766.175781 318.105469 779.109375 350.203125 786.929688 C 358.460938 788.808594 363.128906 789.488281 364.203125 788.964844 C 364.785156 788.773438 364.730469 788.367188 364.035156 787.742188 C 365.449219 788.730469 367.574219 787.800781 370.40625 784.960938 C 372.792969 782.070312 374.355469 779.222656 375.089844 776.425781 C 332.574219 775.433594 267.078125 746.425781 178.601562 689.40625 C 128.109375 651.710938 90.109375 607.488281 64.597656 556.738281 C 40.449219 498.964844 35.242188 430.386719 48.976562 351 C 59.074219 289.390625 89.460938 227.917969 140.148438 166.578125 " fill-opacity="1" fill-rule="nonzero"></path><g fill="#ffffff" fill-opacity="1"><g transform="translate(89.560728, 560.217379)"><g><path d="M 34.503906 -281.921875 L 17.25 -281.921875 L 17.25 0 L 34.503906 0 L 34.503906 -119.5 L 138.015625 -119.5 L 138.015625 -136.753906 L 34.503906 -136.753906 Z M 183.039062 -281.921875 L 165.785156 -281.921875 L 165.785156 -162.421875 L 59.75 -162.421875 L 59.75 -145.167969 L 165.785156 -145.167969 L 165.785156 0 L 183.039062 0 Z M 183.039062 -281.921875 "></path></g></g></g><g fill="#ffffff" fill-opacity="1"><g transform="translate(295.073045, 560.217379)"><g><path d="M 141.382812 -101.40625 C 93.832031 -181.355469 58.066406 -241.527344 34.503906 -281.921875 L 17.25 -281.921875 L 17.25 0.421875 L 34.503906 0.421875 L 34.503906 -248.257812 C 38.710938 -240.265625 42.078125 -234.375 44.601562 -231.007812 L 44.601562 0.421875 L 61.855469 0.421875 L 61.855469 -201.972656 C 93.832031 -147.273438 118.238281 -106.457031 134.648438 -79.527344 C 138.015625 -73.636719 140.539062 -69.007812 142.222656 -66.0625 C 145.589844 -71.953125 147.695312 -76.582031 149.375 -79.949219 C 187.667969 -153.164062 216.28125 -207.863281 235.636719 -244.894531 L 235.636719 0.421875 L 252.886719 0.421875 L 252.886719 -281.921875 L 235.636719 -281.921875 C 193.558594 -201.554688 162.421875 -141.382812 141.382812 -101.40625 Z M 141.382812 -101.40625 "></path></g></g></g><g fill="#ffffff" fill-opacity="1"><g transform="translate(572.959387, 560.217379)"><g><path d="M 165.785156 -285.710938 L 15.988281 -285.710938 L 15.988281 -268.457031 L 84.996094 -268.457031 L 84.996094 0.421875 L 102.25 0.421875 L 102.25 -268.457031 L 165.785156 -268.457031 Z M 74.898438 -259.199219 L 57.648438 -259.199219 L 57.648438 -63.539062 L 74.898438 -63.539062 Z M 74.898438 -259.199219 "></path></g></g></g><g clip-path="url(#85330c92da)"><path fill="#ef9066" d="M 133.800781 648.722656 C 135.578125 651.035156 135.222656 654.417969 132.910156 656.199219 C 131.839844 656.910156 130.773438 657.445312 129.527344 657.445312 C 127.925781 657.445312 126.320312 656.734375 125.253906 655.488281 C 123.472656 653.171875 123.828125 649.789062 126.144531 648.011719 C 128.457031 646.050781 131.839844 646.410156 133.800781 648.722656 Z M 205.542969 124.453125 C 206.609375 124.453125 207.675781 124.097656 208.566406 123.382812 C 211.058594 121.605469 211.59375 118.398438 209.8125 115.90625 C 208.035156 113.414062 204.828125 112.882812 202.335938 114.660156 C 199.84375 116.441406 199.308594 119.644531 201.089844 122.136719 C 202.160156 123.742188 203.9375 124.453125 205.542969 124.453125 Z M 235.269531 105.226562 C 236.160156 105.226562 237.050781 105.046875 237.941406 104.515625 C 240.433594 103.089844 241.324219 99.707031 239.898438 97.214844 C 238.476562 94.722656 235.09375 93.832031 232.601562 95.257812 C 230.109375 96.683594 229.21875 100.0625 230.640625 102.554688 C 231.710938 104.335938 233.492188 105.226562 235.269531 105.226562 Z M 209.28125 720.644531 C 206.789062 718.863281 203.582031 719.574219 201.800781 721.890625 C 200.023438 724.382812 200.734375 727.585938 203.050781 729.367188 C 203.9375 730.078125 205.007812 730.433594 206.074219 730.433594 C 207.675781 730.433594 209.457031 729.722656 210.347656 728.121094 C 212.304688 725.804688 211.773438 722.421875 209.28125 720.644531 Z M 156.585938 675.070312 C 154.628906 672.933594 151.246094 672.933594 149.109375 674.890625 C 146.972656 676.851562 146.972656 680.230469 148.929688 682.367188 C 150 683.4375 151.421875 683.96875 152.847656 683.96875 C 154.09375 683.96875 155.515625 683.4375 156.585938 682.546875 C 158.542969 680.589844 158.722656 677.207031 156.585938 675.070312 Z M 174.386719 699.636719 C 172.429688 701.949219 172.605469 705.15625 174.921875 707.113281 C 175.988281 708.003906 177.234375 708.359375 178.480469 708.359375 C 179.90625 708.359375 181.507812 707.824219 182.578125 706.578125 C 184.535156 704.441406 184.355469 700.882812 182.042969 699.101562 C 179.726562 697.144531 176.347656 697.5 174.386719 699.636719 Z M 177.769531 146.347656 C 179.015625 146.347656 180.261719 145.992188 181.332031 145.101562 C 183.464844 143.144531 183.824219 139.761719 181.863281 137.625 C 179.90625 135.488281 176.523438 135.132812 174.386719 137.09375 C 172.25 139.050781 171.894531 142.433594 173.855469 144.570312 C 174.742188 145.816406 176.167969 146.347656 177.769531 146.347656 Z M 152.136719 170.917969 C 153.558594 170.917969 154.984375 170.382812 156.050781 169.3125 C 158.007812 167.179688 158.007812 163.796875 155.875 161.835938 C 153.738281 159.878906 150.355469 159.878906 148.398438 162.015625 C 146.4375 164.152344 146.4375 167.535156 148.574219 169.492188 C 149.464844 170.382812 150.890625 170.917969 152.136719 170.917969 Z M 333.539062 65.707031 C 333.894531 65.707031 334.429688 65.707031 334.785156 65.527344 C 337.632812 64.816406 339.414062 61.96875 338.699219 59.121094 C 337.988281 56.269531 335.140625 54.492188 332.292969 55.203125 C 329.441406 55.914062 327.664062 58.761719 328.375 61.613281 C 328.910156 64.105469 331.046875 65.707031 333.539062 65.707031 Z M 335.496094 778.320312 C 332.648438 777.609375 329.800781 779.390625 329.085938 782.238281 C 328.375 785.085938 330.15625 787.933594 333.003906 788.648438 C 333.359375 788.648438 333.894531 788.824219 334.25 788.824219 C 336.742188 788.824219 338.878906 787.222656 339.414062 784.730469 C 340.125 781.882812 338.34375 779.035156 335.496094 778.320312 Z M 368.25 58.941406 C 368.429688 58.941406 368.785156 58.941406 368.964844 58.941406 C 371.8125 58.585938 373.949219 55.738281 373.414062 52.890625 C 373.058594 50.039062 370.210938 47.902344 367.363281 48.4375 C 364.511719 48.792969 362.378906 51.640625 362.910156 54.492188 C 363.265625 57.160156 365.582031 58.941406 368.25 58.941406 Z M 302.027344 768.53125 C 299.179688 767.640625 296.152344 769.0625 295.261719 771.914062 C 294.375 774.761719 295.796875 777.789062 298.644531 778.675781 C 299.179688 778.855469 299.890625 779.035156 300.425781 779.035156 C 302.5625 779.035156 304.699219 777.609375 305.410156 775.472656 C 306.300781 772.445312 304.875 769.421875 302.027344 768.53125 Z M 238.652344 739.511719 C 236.160156 738.089844 232.777344 738.980469 231.355469 741.472656 C 229.929688 743.964844 230.820312 747.347656 233.3125 748.769531 C 234.203125 749.304688 235.09375 749.480469 235.984375 749.480469 C 237.761719 749.480469 239.542969 748.59375 240.609375 746.8125 C 242.035156 744.320312 241.144531 740.9375 238.652344 739.511719 Z M 299.535156 75.675781 C 300.070312 75.675781 300.605469 75.496094 301.316406 75.320312 C 304.164062 74.25 305.589844 71.226562 304.699219 68.554688 C 303.628906 65.707031 300.605469 64.28125 297.933594 65.351562 C 295.085938 66.238281 293.660156 69.445312 294.730469 72.113281 C 295.261719 74.429688 297.222656 75.675781 299.535156 75.675781 Z M 266.78125 89.027344 C 267.492188 89.027344 268.203125 88.847656 268.917969 88.492188 C 271.585938 87.246094 272.832031 84.042969 271.585938 81.371094 C 270.339844 78.703125 267.136719 77.457031 264.464844 78.703125 C 261.796875 79.949219 260.550781 83.152344 261.796875 85.824219 C 262.6875 87.78125 264.644531 89.027344 266.78125 89.027344 Z M 269.628906 755.535156 C 266.957031 754.289062 263.753906 755.535156 262.507812 758.203125 C 261.261719 760.875 262.507812 764.078125 265.179688 765.324219 C 265.890625 765.683594 266.601562 765.859375 267.3125 765.859375 C 269.273438 765.859375 271.230469 764.613281 272.121094 762.65625 C 273.542969 759.984375 272.296875 756.78125 269.628906 755.535156 Z M 369.855469 784.730469 C 367.003906 784.375 364.15625 786.332031 363.800781 789.179688 C 363.445312 792.027344 365.402344 794.878906 368.25 795.234375 C 368.429688 795.234375 368.785156 795.234375 368.964844 795.234375 C 371.632812 795.234375 373.949219 793.273438 374.304688 790.605469 C 374.660156 787.933594 372.703125 785.265625 369.855469 784.730469 Z M 55.292969 357.125 C 55.648438 357.125 56.003906 357.304688 56.359375 357.304688 C 58.851562 357.304688 61.167969 355.523438 61.523438 353.03125 C 62.058594 350.183594 60.097656 347.335938 57.25 346.800781 C 54.402344 346.265625 51.554688 348.222656 51.019531 351.074219 C 50.484375 353.742188 52.445312 356.589844 55.292969 357.125 Z M 50.839844 392.195312 C 51.019531 392.195312 51.199219 392.195312 51.375 392.195312 C 54.046875 392.195312 56.359375 390.058594 56.714844 387.390625 C 57.070312 384.539062 54.757812 381.871094 51.910156 381.515625 C 49.0625 381.15625 46.390625 383.472656 46.035156 386.320312 C 45.855469 389.347656 47.992188 392.015625 50.839844 392.195312 Z M 55.113281 422.28125 C 55.113281 419.253906 52.621094 416.941406 49.773438 416.941406 C 46.746094 416.941406 44.433594 419.433594 44.433594 422.28125 C 44.433594 425.308594 46.746094 427.621094 49.773438 427.621094 C 52.800781 427.621094 55.113281 425.128906 55.113281 422.28125 Z M 51.910156 462.871094 C 54.757812 462.511719 57.070312 460.019531 56.714844 456.996094 C 56.359375 453.96875 53.867188 451.832031 50.839844 452.1875 C 47.816406 452.542969 45.679688 455.035156 46.035156 458.0625 C 46.214844 460.734375 48.707031 462.871094 51.375 462.871094 C 51.554688 462.871094 51.730469 462.871094 51.910156 462.871094 Z M 781.613281 351.605469 C 782.148438 354.097656 784.285156 355.878906 786.777344 355.878906 C 787.132812 355.878906 787.488281 355.878906 787.84375 355.703125 C 790.695312 355.167969 792.652344 352.320312 792.117188 349.46875 C 791.582031 346.621094 788.734375 344.664062 785.886719 345.199219 C 783.039062 345.910156 781.082031 348.757812 781.613281 351.605469 Z M 786.777344 386.144531 C 786.957031 388.8125 789.449219 390.949219 792.117188 390.949219 C 792.296875 390.949219 792.472656 390.949219 792.652344 390.949219 C 795.679688 390.59375 797.816406 388.101562 797.457031 385.074219 C 797.101562 382.046875 794.609375 379.910156 791.582031 380.269531 C 788.558594 380.625 786.421875 383.292969 786.777344 386.144531 Z M 63.125 322.589844 C 63.660156 322.765625 64.191406 322.765625 64.726562 322.765625 C 67.042969 322.765625 69.175781 321.34375 69.890625 318.851562 C 70.78125 316.003906 69.175781 312.976562 66.328125 312.265625 C 63.480469 311.375 60.453125 312.976562 59.742188 315.824219 C 58.675781 318.851562 60.277344 321.699219 63.125 322.589844 Z M 61.699219 491.53125 C 61.167969 488.683594 58.316406 486.722656 55.46875 487.257812 C 52.621094 487.792969 50.664062 490.640625 51.199219 493.488281 C 51.730469 495.980469 53.867188 497.761719 56.359375 497.761719 C 56.714844 497.761719 57.070312 497.761719 57.429688 497.582031 C 60.453125 497.226562 62.234375 494.558594 61.699219 491.53125 Z M 88.402344 256.542969 C 89.117188 256.898438 90.007812 257.078125 90.894531 257.078125 C 92.855469 257.078125 94.632812 256.011719 95.703125 254.230469 C 97.125 251.558594 96.058594 248.355469 93.386719 247.109375 C 90.71875 245.683594 87.515625 246.753906 86.265625 249.421875 C 84.664062 251.914062 85.734375 255.121094 88.402344 256.542969 Z M 88.761719 587.839844 C 86.089844 589.265625 85.199219 592.46875 86.445312 594.960938 C 87.335938 596.742188 89.292969 597.808594 91.253906 597.808594 C 92.140625 597.808594 92.855469 597.628906 93.746094 597.273438 C 96.414062 595.851562 97.484375 592.644531 96.058594 590.152344 C 94.632812 587.484375 91.429688 586.59375 88.761719 587.839844 Z M 105.671875 225.570312 C 106.5625 226.101562 107.628906 226.457031 108.519531 226.457031 C 110.300781 226.457031 112.082031 225.570312 112.96875 223.964844 C 114.574219 221.472656 113.859375 218.269531 111.367188 216.667969 C 108.875 215.066406 105.671875 215.777344 104.070312 218.269531 C 102.46875 220.761719 103.179688 223.964844 105.671875 225.570312 Z M 106.027344 618.816406 C 103.535156 620.417969 102.824219 623.800781 104.425781 626.292969 C 105.492188 627.894531 107.097656 628.785156 108.875 628.785156 C 109.945312 628.785156 110.835938 628.605469 111.722656 627.894531 C 114.214844 626.292969 114.929688 622.910156 113.328125 620.417969 C 111.902344 617.925781 108.519531 617.214844 106.027344 618.816406 Z M 125.789062 196.550781 C 126.679688 197.261719 127.925781 197.621094 128.992188 197.621094 C 130.59375 197.621094 132.195312 196.90625 133.265625 195.660156 C 135.046875 193.347656 134.6875 189.964844 132.375 188.183594 C 130.058594 186.402344 126.679688 186.761719 124.898438 189.074219 C 122.941406 191.210938 123.472656 194.59375 125.789062 196.550781 Z M 74.164062 288.945312 C 74.875 289.300781 75.410156 289.300781 76.121094 289.300781 C 78.257812 289.300781 80.214844 288.054688 81.105469 285.917969 C 82.171875 283.246094 80.925781 280.042969 78.078125 278.972656 C 75.410156 277.90625 72.203125 279.152344 71.136719 282 C 70.066406 284.671875 71.492188 287.875 74.164062 288.945312 Z M 74.519531 555.441406 C 71.847656 556.507812 70.421875 559.710938 71.492188 562.382812 C 72.382812 564.519531 74.339844 565.765625 76.476562 565.765625 C 77.1875 565.765625 77.902344 565.585938 78.433594 565.410156 C 81.105469 564.339844 82.527344 561.136719 81.460938 558.464844 C 80.394531 555.617188 77.1875 554.371094 74.519531 555.441406 Z M 63.304688 521.792969 C 60.453125 522.683594 58.851562 525.53125 59.742188 528.382812 C 60.453125 530.695312 62.589844 532.121094 64.90625 532.121094 C 65.4375 532.121094 65.972656 532.121094 66.328125 531.941406 C 69.175781 531.050781 70.78125 528.203125 69.890625 525.355469 C 69.175781 522.683594 66.152344 521.082031 63.304688 521.792969 Z M 737.644531 618.460938 C 735.152344 616.855469 731.945312 617.570312 730.167969 620.0625 C 728.566406 622.554688 729.277344 625.757812 731.769531 627.359375 C 732.660156 627.894531 733.726562 628.25 734.617188 628.25 C 736.398438 628.25 738 627.359375 739.066406 625.757812 C 740.847656 623.265625 740.136719 620.0625 737.644531 618.460938 Z M 713.789062 196.550781 C 715.035156 196.550781 716.101562 196.195312 717.171875 195.304688 C 719.484375 193.523438 719.839844 190.140625 718.0625 187.828125 C 716.28125 185.515625 712.898438 185.15625 710.585938 186.9375 C 708.269531 188.71875 707.914062 192.101562 709.695312 194.414062 C 710.585938 196.015625 712.1875 196.550781 713.789062 196.550781 Z M 734.261719 225.390625 C 735.328125 225.390625 736.21875 225.035156 737.109375 224.5 C 739.601562 222.898438 740.3125 219.515625 738.710938 217.203125 C 737.109375 214.710938 733.726562 213.996094 731.414062 215.597656 C 728.921875 217.203125 728.207031 220.582031 729.8125 223.074219 C 730.878906 224.5 732.480469 225.390625 734.261719 225.390625 Z M 717.527344 647.476562 C 715.214844 645.695312 711.832031 646.050781 710.050781 648.367188 C 708.269531 650.679688 708.625 654.0625 710.941406 655.84375 C 712.007812 656.554688 713.078125 656.910156 714.324219 656.910156 C 715.925781 656.910156 717.527344 656.199219 718.59375 654.953125 C 720.199219 652.640625 719.839844 649.257812 717.527344 647.476562 Z M 752.0625 256.011719 C 752.953125 256.011719 753.664062 255.832031 754.554688 255.476562 C 757.226562 254.050781 758.117188 250.847656 756.871094 248.355469 C 755.445312 245.683594 752.242188 244.792969 749.75 246.039062 C 747.078125 247.464844 746.1875 250.667969 747.433594 253.160156 C 748.324219 254.941406 750.105469 256.011719 752.0625 256.011719 Z M 754.910156 587.484375 C 752.242188 586.058594 749.035156 587.128906 747.789062 589.796875 C 746.367188 592.46875 747.433594 595.671875 750.105469 596.917969 C 750.816406 597.273438 751.707031 597.453125 752.597656 597.453125 C 754.554688 597.453125 756.335938 596.382812 757.402344 594.605469 C 758.648438 592.113281 757.582031 588.90625 754.910156 587.484375 Z M 687.085938 674.714844 C 685.128906 676.851562 685.128906 680.230469 687.265625 682.191406 C 688.332031 683.257812 689.578125 683.613281 691.003906 683.613281 C 692.425781 683.613281 693.851562 683.082031 694.917969 682.011719 C 697.054688 679.875 696.878906 676.492188 694.742188 674.535156 C 692.605469 672.578125 689.222656 672.578125 687.085938 674.714844 Z M 661.984375 698.925781 C 659.847656 700.882812 659.492188 704.265625 661.449219 706.402344 C 662.519531 707.648438 663.941406 708.179688 665.546875 708.179688 C 666.792969 708.179688 668.039062 707.824219 669.105469 706.933594 C 671.242188 704.976562 671.597656 701.59375 669.640625 699.457031 C 667.503906 697.144531 664.121094 696.964844 661.984375 698.925781 Z M 690.46875 169.847656 C 691.714844 169.847656 693.136719 169.3125 694.207031 168.425781 C 696.34375 166.464844 696.34375 162.90625 694.386719 160.945312 C 692.425781 158.8125 689.042969 158.8125 686.90625 160.769531 C 684.773438 162.726562 684.773438 166.109375 686.730469 168.246094 C 687.621094 169.3125 689.042969 169.847656 690.46875 169.847656 Z M 778.589844 321.519531 C 779.121094 321.519531 779.65625 321.519531 780.011719 321.34375 C 782.859375 320.453125 784.464844 317.605469 783.574219 314.757812 C 782.683594 311.90625 779.835938 310.304688 776.984375 311.195312 C 774.136719 312.085938 772.535156 314.933594 773.425781 317.78125 C 774.136719 320.097656 776.273438 321.519531 778.589844 321.519531 Z M 792.652344 451.832031 C 789.804688 451.476562 787.132812 453.789062 786.777344 456.640625 C 786.421875 459.664062 788.734375 462.15625 791.582031 462.511719 C 791.761719 462.511719 791.941406 462.511719 792.117188 462.511719 C 794.789062 462.511719 797.101562 460.378906 797.457031 457.707031 C 797.636719 454.679688 795.5 452.1875 792.652344 451.832031 Z M 788.023438 486.902344 C 785.175781 486.367188 782.328125 488.328125 781.792969 491.175781 C 781.257812 494.023438 783.21875 496.871094 786.066406 497.40625 C 786.421875 497.40625 786.777344 497.40625 787.132812 497.40625 C 789.625 497.40625 791.941406 495.625 792.296875 493.132812 C 792.828125 490.285156 791.050781 487.4375 788.023438 486.902344 Z M 799.0625 421.035156 C 799.0625 418.007812 796.570312 415.695312 793.71875 415.695312 C 790.695312 415.695312 788.378906 418.007812 788.378906 421.035156 C 788.378906 421.210938 788.378906 421.390625 788.378906 421.390625 C 788.378906 421.570312 788.378906 421.570312 788.378906 421.746094 C 788.378906 424.59375 790.695312 427.085938 793.71875 427.085938 C 796.570312 427.085938 799.0625 424.773438 799.0625 421.746094 C 799.0625 421.570312 799.0625 421.390625 799.0625 421.390625 C 799.0625 421.390625 799.0625 421.035156 799.0625 421.035156 Z M 769.152344 555.082031 C 766.484375 554.015625 763.277344 555.261719 762.210938 558.109375 C 761.140625 560.78125 762.386719 563.984375 765.238281 565.054688 C 765.949219 565.230469 766.660156 565.410156 767.195312 565.410156 C 769.332031 565.410156 771.289062 564.164062 772.179688 562.027344 C 773.246094 559.355469 772 556.152344 769.152344 555.082031 Z M 766.839844 288.230469 C 767.550781 288.230469 768.261719 288.054688 768.796875 287.875 C 771.46875 286.808594 772.890625 283.601562 771.824219 280.933594 C 770.753906 278.261719 767.550781 276.839844 764.878906 277.90625 C 762.210938 278.972656 760.785156 282.179688 761.855469 284.847656 C 762.746094 286.808594 764.703125 288.230469 766.839844 288.230469 Z M 664.832031 145.636719 C 666.257812 145.636719 667.859375 144.925781 668.929688 143.855469 C 670.886719 141.542969 670.707031 138.160156 668.394531 136.378906 C 666.257812 134.421875 662.695312 134.601562 660.917969 136.914062 C 658.957031 139.050781 659.316406 142.433594 661.449219 144.390625 C 662.339844 145.101562 663.585938 145.636719 664.832031 145.636719 Z M 403.320312 55.558594 L 403.5 55.558594 C 406.527344 55.382812 408.664062 52.890625 408.664062 49.863281 C 408.484375 47.015625 405.992188 44.699219 403.144531 44.878906 C 400.117188 45.054688 397.980469 47.546875 398.160156 50.394531 C 398.160156 53.421875 400.652344 55.558594 403.320312 55.558594 Z M 780.191406 521.4375 C 777.34375 520.546875 774.316406 522.148438 773.605469 525 C 772.714844 527.847656 774.316406 530.695312 777.164062 531.585938 C 777.699219 531.761719 778.230469 531.761719 778.589844 531.761719 C 780.902344 531.761719 783.039062 530.160156 783.75 527.847656 C 784.640625 525.355469 783.039062 522.328125 780.191406 521.4375 Z M 474.171875 784.730469 C 471.324219 785.085938 469.1875 787.933594 469.722656 790.78125 C 470.078125 793.453125 472.394531 795.410156 475.0625 795.410156 C 475.242188 795.410156 475.597656 795.410156 475.777344 795.410156 C 478.625 795.054688 480.761719 792.207031 480.226562 789.359375 C 479.691406 786.332031 477.023438 784.375 474.171875 784.730469 Z M 507.640625 65.351562 C 507.996094 65.527344 508.53125 65.527344 508.886719 65.527344 C 511.378906 65.527344 513.515625 63.925781 514.050781 61.433594 C 514.761719 58.585938 512.980469 55.738281 510.132812 55.023438 C 507.285156 54.3125 504.4375 56.09375 503.726562 58.941406 C 503.011719 61.789062 504.613281 64.636719 507.640625 65.351562 Z M 473.285156 58.761719 C 473.460938 58.761719 473.816406 58.761719 473.996094 58.761719 C 476.664062 58.761719 478.980469 56.804688 479.335938 54.136719 C 479.691406 51.285156 477.734375 48.4375 474.886719 48.082031 C 472.039062 47.726562 469.1875 49.683594 468.832031 52.710938 C 468.300781 55.738281 470.433594 58.40625 473.285156 58.761719 Z M 508.355469 778.144531 C 505.503906 778.855469 503.726562 781.703125 504.4375 784.550781 C 504.972656 787.042969 507.285156 788.648438 509.601562 788.648438 C 509.957031 788.648438 510.488281 788.648438 510.847656 788.46875 C 513.695312 787.757812 515.472656 784.90625 514.761719 782.058594 C 514.050781 779.210938 511.203125 777.429688 508.355469 778.144531 Z M 404.566406 788.113281 C 401.71875 787.933594 399.050781 790.25 399.050781 793.097656 C 398.871094 796.125 401.183594 798.617188 404.210938 798.617188 L 404.390625 798.617188 C 407.238281 798.617188 409.550781 796.480469 409.730469 793.453125 C 409.730469 790.78125 407.417969 788.113281 404.566406 788.113281 Z M 438.570312 55.558594 L 438.746094 55.558594 C 441.597656 55.558594 443.910156 53.421875 444.089844 50.394531 C 444.265625 47.546875 441.953125 44.878906 438.925781 44.878906 C 435.898438 44.699219 433.40625 47.015625 433.40625 50.039062 C 433.40625 52.890625 435.722656 55.382812 438.570312 55.558594 Z M 439.460938 788.113281 C 436.433594 788.289062 434.296875 790.78125 434.296875 793.632812 C 434.476562 796.480469 436.789062 798.792969 439.636719 798.792969 L 439.992188 798.792969 C 442.84375 798.617188 445.15625 796.125 444.976562 793.273438 C 444.800781 790.25 442.308594 787.933594 439.460938 788.113281 Z M 574.222656 755.355469 C 571.550781 756.601562 570.304688 759.808594 571.550781 762.476562 C 572.441406 764.4375 574.398438 765.683594 576.355469 765.683594 C 577.070312 765.683594 577.78125 765.503906 578.492188 765.148438 C 581.164062 763.902344 582.410156 760.699219 581.164062 758.027344 C 580.097656 755.355469 576.890625 754.109375 574.222656 755.355469 Z M 541.109375 74.964844 C 541.644531 75.140625 542.355469 75.320312 542.890625 75.320312 C 545.027344 75.320312 547.160156 73.894531 547.875 71.757812 C 548.765625 68.910156 547.339844 65.882812 544.492188 64.992188 C 541.644531 64.105469 538.617188 65.527344 537.726562 68.375 C 536.835938 71.046875 538.261719 74.074219 541.109375 74.964844 Z M 605.195312 739.335938 C 602.703125 740.757812 601.8125 744.140625 603.238281 746.632812 C 604.304688 748.414062 606.085938 749.304688 607.867188 749.304688 C 608.757812 749.304688 609.648438 749.125 610.539062 748.59375 C 613.03125 747.167969 613.917969 743.785156 612.496094 741.292969 C 611.070312 738.800781 607.6875 737.910156 605.195312 739.335938 Z M 633.859375 122.671875 C 634.746094 123.382812 635.816406 123.742188 636.882812 123.742188 C 638.488281 123.742188 640.265625 123.027344 641.335938 121.425781 C 643.113281 118.933594 642.402344 115.730469 640.089844 113.949219 C 637.597656 112.167969 634.390625 112.882812 632.613281 115.195312 C 630.832031 117.511719 631.542969 121.070312 633.859375 122.671875 Z M 604.484375 103.800781 C 605.375 104.335938 606.265625 104.515625 607.15625 104.515625 C 608.933594 104.515625 610.714844 103.625 611.785156 101.84375 C 613.207031 99.351562 612.316406 95.96875 609.824219 94.546875 C 607.332031 93.121094 603.949219 94.011719 602.527344 96.503906 C 601.101562 99.175781 601.992188 102.378906 604.484375 103.800781 Z M 634.570312 720.464844 C 632.253906 722.246094 631.542969 725.449219 633.324219 727.941406 C 634.390625 729.367188 635.992188 730.078125 637.597656 730.078125 C 638.664062 730.078125 639.734375 729.722656 640.621094 729.007812 C 642.9375 727.230469 643.648438 724.023438 641.867188 721.53125 C 640.265625 719.21875 636.882812 718.683594 634.570312 720.464844 Z M 541.820312 768.351562 C 538.972656 769.242188 537.550781 772.269531 538.4375 775.117188 C 539.152344 777.253906 541.289062 778.675781 543.421875 778.675781 C 543.957031 778.675781 544.492188 778.675781 545.203125 778.320312 C 548.050781 777.429688 549.476562 774.40625 548.40625 771.554688 C 547.695312 768.886719 544.667969 767.460938 541.820312 768.351562 Z M 573.507812 87.957031 C 574.222656 88.316406 574.933594 88.492188 575.644531 88.492188 C 577.605469 88.492188 579.5625 87.425781 580.453125 85.289062 C 581.699219 82.617188 580.453125 79.414062 577.78125 78.167969 C 575.109375 76.921875 571.90625 78.167969 570.660156 80.839844 C 569.59375 83.507812 570.839844 86.710938 573.507812 87.957031 Z M 573.507812 87.957031 " fill-opacity="1" fill-rule="nonzero"></path></g></svg>